0 FILE Vertical axis of rotation
0 
0 Name: Vertical axis of rotation
0 Author: 
.ldr
0 
0 Name: Vertical axis of rotation
.ldr
0 Author: 
1 83 0 105.3127 -6.7959 0 0 1 -1 0 0 0 -1 0 32278.dat
1 83 0 145.3127 -46.7959 0 0 1 -1 0 0 0 -1 0 32278.dat
1 83 0 145.3127 -6.7959 0 0 1 -1 0 0 0 -1 0 32278.dat
1 83 0 125.3127 -46.7959 0 0 1 -1 0 0 0 -1 0 32278.dat
1 83 0 125.3127 -6.7959 0 0 1 -1 0 0 0 -1 0 32278.dat
1 83 0 105.3127 -46.7959 0 0 1 -1 0 0 0 -1 0 32278.dat
1 83 80 105.3127 8.2041 0 0 -1 1 0 0 0 -1 0 32056.dat
1 83 80 105.3127 18.2041 0 0 -1 1 0 0 0 -1 0 32056.dat
1 83 80 105.3127 -71.7959 0 0 -1 1 0 0 0 -1 0 32056.dat
1 83 80 105.3127 -61.7959 0 0 -1 1 0 0 0 -1 0 32056.dat
1 83 80 105.3127 -31.7959 0 0 -1 1 0 0 0 -1 0 32056.dat
1 83 80 105.3127 -21.7959 0 0 -1 1 0 0 0 -1 0 32056.dat
1 7 80 105.3127 -26.7959 0 1 0 0 0 -1 -1 0 0 32073.dat
1 7 80 145.3127 -26.7959 0 1 0 0 0 -1 -1 0 0 32073.dat
1 7 -120 125.3127 -26.7959 1 0 0 0 0 1 0 -1 0 32523.dat
1 83 120 125.3127 -26.7959 1 0 0 0 0 1 0 -1 0 32523.dat
1 7 -120 125.3127 -26.7959 0 0 1 0 -1 0 1 0 0 32556.dat
1 7 -120 105.3127 -26.7959 0 0 1 0 -1 0 1 0 0 32556.dat
1 7 -120 145.3127 -26.7959 0 0 1 0 -1 0 1 0 0 32556.dat
1 7 120 125.3127 -26.7959 0 0 1 0 -1 0 1 0 0 32556.dat
1 7 120 105.3127 -26.7959 0 0 1 0 -1 0 1 0 0 32556.dat
1 7 120 145.3127 -26.7959 0 0 1 0 -1 0 1 0 0 32556.dat
0 STEP
1 0 0 105.3127 -26.7959 0 0 1 0 1 0 -1 0 0 48452.dat
1 0 0 105.3127 -26.7959 0 0 1 0 1 0 -1 0 0 48168.dat
1 7 0 105.3127 13.2041 0 0 1 0 1 0 -1 0 0 32556.dat
1 7 -20 105.3127 13.2041 0 0 1 0 1 0 -1 0 0 32556.dat
1 7 20 105.3127 13.2041 0 0 1 0 1 0 -1 0 0 32556.dat
1 7 0 105.3127 -66.7959 0 0 1 0 -1 0 1 0 0 32556.dat
1 7 -20 105.3127 -66.7959 0 0 1 0 -1 0 1 0 0 32556.dat
1 7 20 105.3127 -66.7959 0 0 1 0 -1 0 1 0 0 32556.dat
0 STEP
1 7 -40 105.3127 13.2041 0 0 -1 0 1 0 1 0 0 32556.dat
1 7 -40 105.3127 -66.7959 0 0 1 0 1 0 -1 0 0 32556.dat
1 7 -80 105.3127 -56.7959 0 1 0 0 0 -1 -1 0 0 4459.dat
1 7 -80 105.3127 3.2041 0 1 0 0 0 -1 -1 0 0 4459.dat
1 7 -60 125.3127 -56.7959 0 1 0 0 0 -1 -1 0 0 4459.dat
1 7 -40 125.3127 -56.7959 0 1 0 0 0 -1 -1 0 0 4459.dat
1 7 -20 125.3127 -56.7959 0 1 0 0 0 -1 -1 0 0 4459.dat
1 7 0 125.3127 -56.7959 0 1 0 0 0 -1 -1 0 0 4459.dat
1 7 -60 125.3127 3.2041 0 1 0 0 0 -1 -1 0 0 4459.dat
1 7 -40 125.3127 3.2041 0 1 0 0 0 -1 -1 0 0 4459.dat
1 7 -20 125.3127 3.2041 0 1 0 0 0 -1 -1 0 0 4459.dat
1 7 0 125.3127 3.2041 0 1 0 0 0 -1 -1 0 0 4459.dat
0 STEP
1 83 0 125.3127 -66.7959 0 0 -1 -1 0 0 0 1 0 32526.dat
1 83 0 125.3127 13.2041 0 0 -1 -1 0 0 0 1 0 32526.dat
0 STEP
0 !LEOCAD PIECE PIVOT  -20 0 -40 1 0 0 0 1 0 0 0 1
1 7 40 145.3127 13.2041 0 0 1 0 -1 0 1 0 0 32556.dat
1 7 40 125.3127 13.2041 0 0 1 0 -1 0 1 0 0 32556.dat
1 7 40 145.3127 -66.7959 0 0 -1 0 -1 0 -1 0 0 32556.dat
1 7 40 125.3127 -66.7959 0 0 -1 0 -1 0 -1 0 0 32556.dat
1 7 -20 145.3127 3.2041 0 0 1 0 -1 0 1 0 0 3749.dat
1 7 -20 145.3127 -56.7959 0 0 1 0 1 0 -1 0 0 3749.dat
1 7 0 145.3127 3.2041 0 0 1 0 -1 0 1 0 0 4459.dat
1 7 0 145.3127 -56.7959 0 0 1 0 1 0 -1 0 0 4459.dat
0 STEP
1 83 -20 145.3127 -66.7959 0 0 1 -1 0 0 0 -1 0 32140.dat
1 83 -20 145.3127 13.2041 0 0 1 -1 0 0 0 -1 0 32140.dat
0 !LEOCAD PIECE PIVOT  0 20 0 1 0 0 0 1 0 0 0 1
1 7 20 145.3127 -66.7959 0 0 -1 0 1 0 1 0 0 32556.dat
0 !LEOCAD PIECE PIVOT  0 20 0 1 0 0 0 1 0 0 0 1
1 7 20 145.3127 13.2041 0 0 1 0 1 0 -1 0 0 32556.dat
0 STEP
1 83 -40 105.3127 33.2041 0 0 1 1 0 0 0 1 0 32526.dat
1 83 -40 105.3127 -86.7959 0 0 1 1 0 0 0 1 0 32526.dat
1 7 40 105.3127 -26.7959 0 0 1 0 1 0 -1 0 0 44294.dat
1 83 20 165.3127 33.2041 -1 0 0 0 -1 0 0 0 1 42003.dat
1 83 20 165.3127 -86.7959 -1 0 0 0 -1 0 0 0 1 42003.dat
0 STEP
1 32 -80 85 -27 1 0 0 0 1 0 0 0 1 4716.dat
1 7 -80 85.3127 -51.7959 0 -1 0 -1 0 0 0 0 -1 4211573.dat
1 7 -80 85.3127 -1.7959 0 -1 0 -1 0 0 0 0 -1 4211573.dat
1 7 -80 85.3127 -26.7959 0 0 -1 0 1 0 1 0 0 44294.dat
1 7 -80 85.3127 -86.7959 -1 0 0 0 1 0 0 0 -1 3647.dat
1 7 -80 85.3127 33.2041 -1 0 0 0 1 0 0 0 -1 3647.dat
0 STEP
1 7 -80 145.3127 3.2041 0 0 -1 0 1 0 1 0 0 4459.dat
1 7 -80 145.3127 -56.7959 0 0 -1 0 1 0 1 0 0 4459.dat
0 STEP
1 83 -80 165.3127 13.2041 -1 0 0 0 -1 0 0 0 1 42003.dat
1 83 -80 165.3127 -66.7959 -1 0 0 0 -1 0 0 0 1 42003.dat
0 STEP
1 7 -80 125.3127 -26.7959 0 0 -1 0 1 0 1 0 0 44294.dat
1 7 -80 125.3127 -86.7959 -1 0 0 0 1 0 0 0 -1 3648b.dat
1 7 -80 125.3127 33.2041 0 1 0 -1 0 0 0 0 1 3648b.dat
1 7 -80 125.3127 -26.7959 0 1 0 -1 0 0 0 0 1 4211622.dat
0 STEP
1 7 -40 145.3127 -66.7959 0 -1 0 -1 0 0 0 0 -1 4211622.dat
1 7 -40 145.3127 -26.7959 0 0 -1 0 1 0 1 0 0 44294.dat
1 7 -40 145.3127 -86.7959 1 0 0 0 1 0 0 0 1 32270.dat
1 7 -40 145.3127 33.2041 1 0 0 0 -1 0 0 0 -1 32270.dat
1 7 -40 145.3127 13.2041 0 -1 0 -1 0 0 0 0 -1 4211622.dat
1 7 -40 145.3127 -26.7959 0 1 0 -1 0 0 0 0 1 3648b.dat
0 STEP
1 83 -80 165.3127 -26.7959 0 0 1 0 1 0 -1 0 0 63869.dat
1 7 -80 165.3127 -26.7959 0 0 -1 0 1 0 1 0 0 32073.dat
1 83 -50 165.3127 -51.7959 0 0 1 -1 0 0 0 -1 0 32449.dat
1 83 -50 165.3127 -41.7959 0 0 1 -1 0 0 0 -1 0 32449.dat
1 83 -50 165.3127 -11.7959 0 0 1 -1 0 0 0 -1 0 32449.dat
1 83 -50 165.3127 -1.7959 0 0 1 -1 0 0 0 -1 0 32449.dat
0 STEP
1 83 -20 185.3127 13.2041 -1 0 0 0 -1 0 0 0 1 6536.dat
1 83 -20 185.3127 -66.7959 -1 0 0 0 -1 0 0 0 1 6536.dat
1 7 -20 165.3127 3.2041 0 0 1 0 1 0 -1 0 0 3749.dat
1 7 -20 165.3127 -56.7959 0 0 1 0 -1 0 1 0 0 3749.dat
0 STEP
1 7 -90 185.3127 -6.7959 -1 0 0 0 -1 0 0 0 1 4459.dat
1 7 -90 185.3127 -46.7959 -1 0 0 0 -1 0 0 0 1 4459.dat
0 STEP
1 7 -50 185.3127 13.2041 -1 0 0 0 -1 0 0 0 1 3706.dat
1 7 -50 185.3127 -66.7959 -1 0 0 0 -1 0 0 0 1 3706.dat
1 7 -40 185.3127 13.2041 0 0 1 1 0 0 0 1 0 4211622.dat
1 7 -60 185.3127 13.2041 0 0 1 1 0 0 0 1 0 4211622.dat
1 7 -60 185.3127 -66.7959 0 0 1 1 0 0 0 1 0 4211622.dat
1 7 -40 185.3127 -66.7959 0 0 1 1 0 0 0 1 0 4211622.dat
0 STEP
1 7 10 185.3127 33.2041 1 0 0 0 1 0 0 0 1 3749.dat
1 7 10 185.3127 -86.7959 1 0 0 0 1 0 0 0 1 3749.dat
0 STEP
1 83 -100 185.3127 -26.7959 0 1 0 -1 0 0 0 0 1 32524.dat
1 83 0 185.3127 -26.7959 0 1 0 -1 0 0 0 0 1 32524.dat
0 STEP
1 7 10 185.3127 -46.7959 -1 0 0 0 -1 0 0 0 1 4459.dat
1 7 10 185.3127 -6.7959 -1 0 0 0 -1 0 0 0 1 4459.dat
0 STEP
1 14 -15 185.3126 -26.7959 0 0 1 0 1 0 -1 0 0 4211573.dat
1 32 -40 185.3126 -26.7959 0 0 1 0 1 0 -1 0 0 4716.dat
1 14 -65 185.3126 -26.7959 0 0 1 0 1 0 -1 0 0 4211573.dat
1 7 -40 185.3127 -26.7959 -1 0 0 0 -1 0 0 0 1 44294.dat
0 STEP
1 7 10 185.3127 -26.7959 0 0 1 0 -1 0 1 0 0 58120.dat
0 NOFILE
0 FILE Horizontal axis of rotation.ldr
0 
0 Name: Horizontal axis of rotation.ldr
0 Author: 
1 83 -69.5844 -149.2782 -66.7959 -1 0 0 0 0 -1 0 -1 0 32278.dat
1 83 -69.5844 -149.2782 -26.7959 -1 0 0 0 0 -1 0 -1 0 32278.dat
1 83 -29.5844 -149.2782 -66.7959 -1 0 0 0 0 -1 0 -1 0 32278.dat
1 83 -29.5844 -149.2782 -26.7959 -1 0 0 0 0 -1 0 -1 0 32278.dat
1 83 -49.5844 -149.2782 -66.7959 -1 0 0 0 0 -1 0 -1 0 32278.dat
1 83 -49.5844 -149.2782 -26.7959 -1 0 0 0 0 -1 0 -1 0 32278.dat
1 83 -9.5844 -109.2782 -6.7959 0 0 -1 -1 0 0 0 1 0 32526.dat
1 83 -9.5844 -109.2782 -86.7959 0 0 -1 -1 0 0 0 1 0 32526.dat
1 7 -29.5844 -109.2782 -6.7959 0 -1 0 0 0 -1 1 0 0 32556.dat
1 7 -49.5844 -109.2782 -6.7959 0 -1 0 0 0 -1 1 0 0 32556.dat
1 7 -69.5844 -109.2782 -6.7959 0 -1 0 0 0 -1 1 0 0 32556.dat
1 7 -89.5844 -109.2782 3.2041 0 -1 0 0 0 -1 1 0 0 4459.dat
1 7 -89.5844 -129.2782 3.2041 0 -1 0 0 0 -1 1 0 0 4459.dat
1 7 -89.5844 -149.2782 3.2041 0 -1 0 0 0 -1 1 0 0 4459.dat
1 7 -9.5844 -109.2782 3.2041 0 -1 0 0 0 -1 1 0 0 4459.dat
1 7 -29.5844 -109.2782 -86.7959 0 -1 0 0 0 1 -1 0 0 32556.dat
1 7 -49.5844 -109.2782 -86.7959 0 -1 0 0 0 1 -1 0 0 32556.dat
1 7 -69.5844 -109.2782 -86.7959 0 -1 0 0 0 1 -1 0 0 32556.dat
1 7 -89.5844 -109.2782 -96.7959 0 -1 0 0 0 -1 1 0 0 4459.dat
1 7 -89.5844 -129.2782 -96.7959 0 -1 0 0 0 -1 1 0 0 4459.dat
1 7 -89.5844 -149.2782 -96.7959 0 -1 0 0 0 -1 1 0 0 4459.dat
1 7 -9.5844 -109.2782 -96.7959 0 -1 0 0 0 -1 1 0 0 4459.dat
0 STEP
1 0 -69.5844 -269.2782 -46.7959 0 1 0 0 0 -1 -1 0 0 48452.dat
1 0 -69.5844 -269.2782 -46.7959 0 1 0 0 0 -1 -1 0 0 48168.dat
1 7 -69.5844 -289.2782 -86.7959 0 1 0 0 0 1 1 0 0 32556.dat
1 7 -69.5844 -269.2782 -86.7959 0 1 0 0 0 1 1 0 0 32556.dat
1 7 -69.5844 -249.2782 -86.7959 0 1 0 0 0 1 1 0 0 32556.dat
1 7 -69.5844 -289.2782 -6.7959 0 -1 0 0 0 1 -1 0 0 32556.dat
1 7 -69.5844 -269.2782 -6.7959 0 -1 0 0 0 1 -1 0 0 32556.dat
1 7 -69.5844 -249.2782 -6.7959 0 -1 0 0 0 1 -1 0 0 32556.dat
0 STEP
1 7 -49.5844 -189.2782 -86.7959 0 1 0 1 0 0 0 0 -1 3648b.dat
1 7 -49.5844 -189.2782 -6.7959 0 1 0 1 0 0 0 0 -1 3648b.dat
1 7 -49.5844 -189.2782 -46.7959 -1 0 0 0 1 0 0 0 -1 4211622.dat
1 7 -29.5845 -229.2782 -46.7959 0 -1 0 1 0 0 0 0 1 3648b.dat
1 7 -29.5844 -229.2782 -6.7959 0 1 0 -1 0 0 0 0 1 32270.dat
1 7 -29.5844 -229.2782 -86.7959 0 1 0 -1 0 0 0 0 1 32270.dat
0 !LEOCAD PIECE PIVOT  0 5 0 1 0 0 0 1 0 0 0 1
1 7 -29.5844 -229.2782 -46.7959 0 0 1 0 -1 0 1 0 0 44294.dat
0 !LEOCAD PIECE PIVOT  0 5 0 1 0 0 0 1 0 0 0 1
1 7 -49.5844 -189.2782 -46.7959 0 0 1 0 -1 0 1 0 0 44294.dat
0 STEP
1 83 -9.5845 -289.2782 -6.7959 0 -1 0 1 0 0 0 0 1 42003.dat
1 83 -9.5845 -289.2782 -86.7959 0 -1 0 1 0 0 0 0 1 42003.dat
1 83 -9.5845 -149.2782 -6.7959 0 -1 0 1 0 0 0 0 1 42003.dat
1 83 -9.5845 -149.2782 -86.7959 0 -1 0 1 0 0 0 0 1 42003.dat
1 7 -29.5844 -149.2782 -86.7959 0 1 0 0 0 1 1 0 0 32556.dat
1 7 -29.5844 -149.2782 -6.7959 0 -1 0 0 0 1 -1 0 0 32556.dat
1 7 -29.5844 -289.2782 -86.7959 0 1 0 0 0 1 1 0 0 32556.dat
1 7 -29.5844 -289.2782 -6.7959 0 -1 0 0 0 1 -1 0 0 32556.dat
1 7 -9.5844 -149.2782 3.2041 0 -1 0 0 0 -1 1 0 0 4459.dat
1 7 -9.5844 -149.2782 -96.7959 0 -1 0 0 0 -1 1 0 0 4459.dat
1 7 -9.5844 -289.2782 3.2041 0 -1 0 0 0 -1 1 0 0 4459.dat
1 7 -9.5844 -289.2782 -96.7959 0 -1 0 0 0 -1 1 0 0 4459.dat
0 STEP
1 83 -69.5844 -189.2782 13.2041 -1 0 0 0 0 -1 0 -1 0 32525.dat
1 83 -49.5844 -149.2782 13.2041 -1 0 0 0 0 -1 0 -1 0 32278.dat
1 83 -9.5844 -149.2782 13.2041 -1 0 0 0 0 -1 0 -1 0 32278.dat
1 83 -29.5844 -149.2782 13.2041 -1 0 0 0 0 -1 0 -1 0 32278.dat
1 83 -49.5844 -149.2782 -106.7959 -1 0 0 0 0 -1 0 -1 0 32278.dat
0 !LEOCAD PIECE PIVOT  0 0 0 0.5 0.866025 0 -0.866025 0.5 0 0 0 1
1 83 -9.5844 -149.2782 -106.7959 -1 0 0 0 0 -1 0 -1 0 32278.dat
1 83 -29.5844 -149.2782 -106.7959 -1 0 0 0 0 -1 0 -1 0 32278.dat
1 83 -69.5844 -189.2782 -106.7959 -1 0 0 0 0 -1 0 -1 0 32525.dat
1 83 -89.5844 -149.2782 -106.7959 -1 0 0 0 0 -1 0 -1 0 32316.dat
1 83 -89.5844 -149.2782 13.2041 -1 0 0 0 0 -1 0 -1 0 32316.dat
0 STEP
1 83 10.4156 -249.2782 -6.7959 0 -1 0 -1 0 0 0 0 -1 6536.dat
0 !LEOCAD PIECE PIVOT  0 30 0 1 0 0 0 1 0 0 0 1
1 83 10.4156 -249.2782 -86.7959 0 -1 0 -1 0 0 0 0 -1 6536.dat
1 7 -9.5844 -249.2782 3.2041 0 -1 0 0 0 -1 1 0 0 4459.dat
1 7 -9.5844 -249.2782 -96.7959 0 -1 0 0 0 -1 1 0 0 4459.dat
0 STEP
1 83 -89.5844 -169.2782 -126.7959 0 0 1 -1 0 0 0 -1 0 32140.dat
1 83 -89.5844 -169.2782 33.2041 0 0 1 -1 0 0 0 -1 0 32140.dat
1 7 -89.5844 -169.2782 -46.7959 0 0 1 0 -1 0 1 0 0 60485.dat
1 7 -89.5844 -169.2782 -86.7959 -1 0 0 0 1 0 0 0 -1 4211622.dat
1 7 -89.5844 -169.2782 -6.7959 -1 0 0 0 1 0 0 0 -1 4211622.dat
1 7 -69.5844 -169.2782 -116.7959 0 -1 0 0 0 -1 1 0 0 4459.dat
1 7 -49.5844 -169.2782 -116.7959 0 -1 0 0 0 -1 1 0 0 4459.dat
1 7 -29.5844 -169.2782 -116.7959 0 -1 0 0 0 -1 1 0 0 4459.dat
1 7 -29.5844 -189.2782 -116.7959 0 -1 0 0 0 -1 1 0 0 4459.dat
1 7 -69.5844 -169.2782 23.2041 0 -1 0 0 0 -1 1 0 0 4459.dat
1 7 -49.5844 -169.2782 23.2041 0 -1 0 0 0 -1 1 0 0 4459.dat
1 7 -29.5844 -169.2782 23.2041 0 -1 0 0 0 -1 1 0 0 4459.dat
1 7 -29.5844 -189.2782 23.2041 0 -1 0 0 0 -1 1 0 0 4459.dat
0 STEP
1 83 10.4156 -269.2782 -46.7959 1 0 0 0 -1 0 0 0 -1 32316.dat
1 83 10.4156 -189.2782 -46.7959 1 0 0 0 -1 0 0 0 -1 32316.dat
1 7 10.4156 -219.2782 -6.7959 0 -1 0 -1 0 0 0 0 -1 3707.dat
1 7 10.4156 -219.2782 -86.7959 0 -1 0 -1 0 0 0 0 -1 3707.dat
1 7 10.4156 -209.2782 -6.7959 1 0 0 0 0 -1 0 1 0 4211622.dat
1 7 10.4156 -229.2782 -6.7959 1 0 0 0 0 -1 0 1 0 4211622.dat
1 7 10.4156 -169.2782 -6.7959 1 0 0 0 0 -1 0 1 0 4211622.dat
1 7 10.4156 -209.2782 -86.7959 1 0 0 0 0 -1 0 1 0 4211622.dat
1 7 10.4156 -229.2782 -86.7959 1 0 0 0 0 -1 0 1 0 4211622.dat
1 7 10.4156 -169.2782 -86.7959 1 0 0 0 0 -1 0 1 0 4211622.dat
0 STEP
1 32 10.4155 -229.2782 -46.7959 0 1 0 0 0 -1 -1 0 0 4716.dat
1 14 10.4155 -204.2782 -46.7959 0 1 0 0 0 -1 -1 0 0 4211573.dat
1 14 10.4155 -254.2782 -46.7959 0 1 0 0 0 -1 -1 0 0 4211573.dat
1 7 10.4156 -229.2782 -46.7959 0 1 0 1 0 0 0 0 -1 44294.dat
1 7 10.4156 -179.2782 -26.7959 0 1 0 1 0 0 0 0 -1 4459.dat
1 7 10.4156 -179.2782 -66.7959 0 1 0 1 0 0 0 0 -1 4459.dat
0 STEP
1 32 -89.8971 -189.2782 -47 0 1 0 -1 0 0 0 0 1 4716.dat
1 7 -89.5844 -189.2782 -71.7959 -1 0 0 0 1 0 0 0 -1 4211573.dat
1 7 -89.5844 -189.2782 -21.7959 -1 0 0 0 1 0 0 0 -1 4211573.dat
1 7 -89.5844 -189.2782 -46.7959 0 1 0 0 0 1 1 0 0 44294.dat
1 7 -89.5844 -189.2782 -86.7959 0 1 0 1 0 0 0 0 -1 3647.dat
1 7 -89.5844 -189.2782 -6.7959 0 1 0 1 0 0 0 0 -1 3647.dat
0 STEP
1 7 10.4156 -179.2782 -46.7959 0 -1 0 0 0 1 -1 0 0 58120.dat
0 STEP
0 STEP
0 STEP
0 STEP
0 STEP
0 STEP
0 STEP
0 STEP
0 STEP
0 STEP
0 STEP
0 STEP
0 STEP
0 STEP
0 STEP
0 STEP
0 STEP
0 STEP
0 STEP
0 STEP
0 STEP
0 STEP
0 STEP
0 NOFILE
0 FILE gear.ldr
0 
0 Name: gear.ldr
0 Author: 
1 83 -42.3846 -39.9538 -35 0 -1 0 1 0 0 0 0 1 42003.dat
1 83 -42.3846 -39.9538 5 0 -1 0 1 0 0 0 0 1 42003.dat
0 !LEOCAD PIECE PIVOT  0 -6 0 1 0 0 0 1 0 0 0 1
1 7 117.6154 -39.9538 -45 0 0 1 0 -1 0 1 0 0 4459.dat
0 !LEOCAD PIECE PIVOT  0 -6 0 1 0 0 0 1 0 0 0 1
1 7 117.6154 -39.9538 15 0 0 1 0 -1 0 1 0 0 4459.dat
0 !LEOCAD PIECE PIVOT  0 -6 0 1 0 0 0 1 0 0 0 1
1 7 -42.3846 -39.9538 -45 0 0 -1 0 1 0 1 0 0 4459.dat
0 !LEOCAD PIECE PIVOT  0 -6 0 1 0 0 0 1 0 0 0 1
1 7 -42.3846 -39.9538 15 0 0 -1 0 1 0 1 0 0 4459.dat
1 83 37.6154 -49.9538 -55 1 0 0 0 1 0 0 0 1 3895.dat
1 83 37.6154 -49.9538 25 1 0 0 0 1 0 0 0 1 3895.dat
0 !LEOCAD PIECE PIVOT  0 -6 0 1 0 0 0 1 0 0 0 1
1 7 137.6154 -39.9538 15 0 0 1 0 -1 0 1 0 0 4459.dat
0 !LEOCAD PIECE PIVOT  0 -6 0 1 0 0 0 1 0 0 0 1
1 7 137.6154 -39.9538 -45 0 0 1 0 -1 0 1 0 0 4459.dat
0 !LEOCAD PIECE PIVOT  0 -6 0 1 0 0 0 1 0 0 0 1
1 7 -62.3846 -39.9538 15 0 0 -1 0 1 0 1 0 0 4459.dat
0 !LEOCAD PIECE PIVOT  0 -6 0 1 0 0 0 1 0 0 0 1
1 7 -62.3846 -39.9538 -45 0 0 -1 0 1 0 1 0 0 4459.dat
1 83 117.6154 -39.9538 -35 0 1 0 1 0 0 0 0 -1 42003.dat
1 83 117.6154 -39.9538 5 0 1 0 1 0 0 0 0 -1 42003.dat
1 83 -22.3846 -69.9538 -15 0 0 1 -1 0 0 0 -1 0 32184.dat
1 83 97.6154 -69.9538 -15 0 0 1 -1 0 0 0 -1 0 32184.dat
1 7 -22.3846 -54.9538 -35 -1 0 0 0 0 -1 0 -1 0 4211573.dat
1 7 -22.3846 -54.9538 5 -1 0 0 0 0 -1 0 -1 0 4211573.dat
1 7 97.6154 -54.9538 -35 -1 0 0 0 0 -1 0 -1 0 4211573.dat
1 7 97.6154 -54.9538 5 -1 0 0 0 0 -1 0 -1 0 4211573.dat
1 7 97.6154 -59.9538 5 0 1 0 1 0 0 0 0 -1 4519.dat
1 7 97.6154 -59.9538 -35 0 1 0 1 0 0 0 0 -1 4519.dat
1 7 97.6154 -84.9538 -35 -1 0 0 0 0 -1 0 -1 0 4211573.dat
1 7 97.6154 -84.9538 5 -1 0 0 0 0 -1 0 -1 0 4211573.dat
1 7 -22.3846 -59.9538 5 0 1 0 1 0 0 0 0 -1 4519.dat
1 7 -22.3846 -59.9538 -35 0 1 0 1 0 0 0 0 -1 4519.dat
1 7 -22.3846 -84.9538 -35 -1 0 0 0 0 -1 0 -1 0 4211573.dat
1 7 -22.3846 -84.9538 5 -1 0 0 0 0 -1 0 -1 0 4211573.dat
1 83 137.6154 -57.9538 -25 0 0 -1 0 1 0 1 0 0 4113993.dat
1 83 137.6154 -25.9538 -25 0 0 -1 0 1 0 1 0 0 4113993.dat
1 83 137.6154 -17.9538 -25 0 0 -1 0 1 0 1 0 0 4113993.dat
1 83 137.6154 -65.9538 -25 0 0 -1 0 1 0 1 0 0 4113993.dat
1 83 -62.3846 -57.9538 -25 0 0 -1 0 1 0 1 0 0 4113993.dat
1 83 -62.3846 -25.9538 -25 0 0 -1 0 1 0 1 0 0 4113993.dat
1 83 -62.3846 -17.9538 -25 0 0 -1 0 1 0 1 0 0 4113993.dat
1 83 -62.3846 -65.9538 -25 0 0 -1 0 1 0 1 0 0 4113993.dat
1 7 17.6154 -39.9538 -15 0 -1 0 -1 0 0 0 0 -1 4019.dat
1 7 17.6154 -39.9538 5 0 -1 0 -1 0 0 0 0 -1 4211622.dat
1 7 17.6154 -39.9538 -35 0 -1 0 -1 0 0 0 0 -1 4211622.dat
1 7 17.6154 -39.9538 -75 0 -1 0 -1 0 0 0 0 -1 4211622.dat
1 7 17.6154 -39.9538 15 0 1 0 0 0 1 1 0 0 3708.dat
1 7 57.6154 -39.9538 -15 -1 0 0 0 -1 0 0 0 1 4716.dat
1 7 57.6154 -39.9538 -40 -1 0 0 0 -1 0 0 0 1 4211573.dat
1 7 57.6154 -39.9538 10 -1 0 0 0 -1 0 0 0 1 4211573.dat
1 7 37.6154 -39.9538 -65 0 1 0 0 0 -1 -1 0 0 4459.dat
1 7 -2.3846 -39.9538 -65 0 1 0 0 0 -1 -1 0 0 4459.dat
1 7 17.6154 -69.9538 -15 0 0 1 -1 0 0 0 -1 0 4716.dat
1 7 57.6154 -68.9538 -15 0 0 -1 0 1 0 1 0 0 4019.dat
1 7 37.6154 -69.9538 -15 1 0 0 0 0 1 0 -1 0 44294.dat
1 7 77.6154 -69.9538 -15 0 0 1 0 -1 0 1 0 0 4211622.dat
1 7 42.6154 -68.9538 -15 0 0 -1 0 1 0 1 0 0 4211573.dat
1 7 -7.3846 -68.9538 -15 0 0 -1 0 1 0 1 0 0 4211573.dat
0 NOFILE
